<?xml version="1.0" encoding="UTF-8"?>
<svg width="180px" height="28px" viewBox="0 0 180 28" version="1.1" xmlns="http://www.w3.org/2000/svg" xmlns:xlink="http://www.w3.org/1999/xlink">
    <!-- Generator: Sketch 62 (91390) - https://sketch.com -->
    <title>Items</title>
    <desc>Created with Sketch.</desc>
    <g id="Symbols" stroke="none" stroke-width="1" fill="none" fill-rule="evenodd">
        <g id="Header-/-Admin" transform="translate(-24.000000, -20.000000)" fill="#fff">
            <g id="Items" transform="translate(24.000000, 20.000000)">
                <g id="Logo">
                    <path d="M170.11634,13.8266234 C167.974213,13.8266234 166.239319,12.0616883 166.239319,9.88246753 C166.239319,7.70584416 167.974213,5.93961039 170.11634,5.93961039 C172.257191,5.93961039 173.993362,7.70584416 173.993362,9.88246753 C173.993362,12.0616883 172.257191,13.8266234 170.11634,13.8266234 L170.11634,13.8266234 Z M174.710809,1.09415584 L173.993362,1.63311688 C172.817617,1.06038961 171.505277,0.729220779 170.11634,0.729220779 C165.145277,0.729220779 161.117617,4.82792208 161.117617,9.88246753 C161.117617,14.937013 165.145277,19.0383117 170.11634,19.0383117 C171.505277,19.0383117 172.817617,18.7071429 173.993362,18.1344156 L174.710809,18.6733766 L179.113787,18.6733766 L179.113787,9.88246753 L179.113787,1.09415584 L174.710809,1.09415584 Z" id="Fill-2"></path>
                    <path d="M128.967319,13.8266234 C126.825191,13.8266234 125.090298,12.0616883 125.090298,9.88246753 C125.090298,7.70584416 126.825191,5.93961039 128.967319,5.93961039 C131.10817,5.93961039 132.843064,7.70584416 132.843064,9.88246753 C132.843064,12.0616883 131.10817,13.8266234 128.967319,13.8266234 M128.967319,0.729220779 C123.997532,0.729220779 119.967319,4.82792208 119.967319,9.88246753 C119.967319,14.937013 123.997532,19.0383117 128.967319,19.0383117 C133.93583,19.0383117 137.964766,14.937013 137.964766,9.88246753 C137.964766,4.82792208 133.93583,0.729220779 128.967319,0.729220779" id="Fill-5"></path>
                    <path d="M149.541191,13.8266234 C147.40034,13.8266234 145.665447,12.0616883 145.665447,9.88246753 C145.665447,7.70584416 147.40034,5.93961039 149.541191,5.93961039 C151.683319,5.93961039 153.418213,7.70584416 153.418213,9.88246753 C153.418213,12.0616883 151.683319,13.8266234 149.541191,13.8266234 L149.541191,13.8266234 Z M153.418213,1.63311688 C152.242468,1.06038961 150.931404,0.729220779 149.541191,0.729220779 C144.571404,0.729220779 140.545021,4.82792208 140.545021,9.88246753 C140.545021,11.2577922 140.850128,12.5564935 141.383745,13.7253247 C142.813532,16.8590909 145.923319,19.0383117 149.541191,19.0383117 C150.931404,19.0383117 152.241191,18.7071429 153.418213,18.1344156 C153.409277,20.3058442 151.676936,22.062987 149.541191,22.062987 C148.207149,22.062987 147.030128,21.3772727 146.33183,20.3344156 L140.820766,20.3344156 C141.794809,24.3162338 145.323319,27.2733766 149.541191,27.2733766 C154.509702,27.2733766 158.538638,23.1720779 158.538638,18.1175325 L158.538638,1.09415584 L154.136936,1.09415584 L153.418213,1.63311688 Z" id="Fill-8"></path>
                    <polygon id="Fill-1" points="114.476553 0.72974026 110.046766 10.3349351 105.662936 0.72974026 100.029319 0.72974026 107.199957 16.5115584 103.342085 24.8816883 108.982085 24.8816883 120.119106 0.72974026"></polygon>
                    <path d="M90.725617,13.8266234 C88.5834894,13.8266234 86.8485957,12.0616883 86.8485957,9.88246753 C86.8485957,7.70584416 88.5834894,5.93961039 90.725617,5.93961039 C92.8664681,5.93961039 94.6013617,7.70584416 94.6013617,9.88246753 C94.6013617,12.0616883 92.8664681,13.8266234 90.725617,13.8266234 M90.725617,0.729220779 C85.7532766,0.729220779 81.7268936,4.82792208 81.7268936,9.88246753 C81.7268936,14.937013 85.7532766,19.0383117 90.725617,19.0383117 C95.6941277,19.0383117 99.7217872,14.937013 99.7217872,9.88246753 C99.7217872,4.82792208 95.6941277,0.729220779 90.725617,0.729220779" id="Fill-11"></path>
                    <path d="M39.5719149,13.8266234 C37.4323404,13.8266234 35.6948936,12.0616883 35.6948936,9.88246753 C35.6948936,7.70584416 37.4323404,5.93961039 39.5719149,5.93961039 C41.7153191,5.93961039 43.4489362,7.70584416 43.4489362,9.88246753 C43.4489362,12.0616883 41.7153191,13.8266234 39.5719149,13.8266234 M39.5719149,0.729220779 C34.6034043,0.729220779 30.5757447,4.82792208 30.5757447,9.88246753 C30.5757447,14.937013 34.6034043,19.0383117 39.5719149,19.0383117 C44.5429787,19.0383117 48.5706383,14.937013 48.5706383,9.88246753 C48.5706383,4.82792208 44.5429787,0.729220779 39.5719149,0.729220779" id="Fill-14"></path>
                    <path d="M71.945617,0.729220779 C69.419234,0.729220779 67.5005106,1.78896104 65.8664681,3.49415584 C64.2311489,1.78896104 62.6724255,0.729220779 60.1473191,0.729220779 C58.7571064,0.729220779 57.4473191,1.42532468 56.2702979,1.99805195 L55.5515745,1.09415584 L51.1511489,1.09415584 L51.1511489,9.88246753 L51.1511489,19.0383117 L56.2702979,19.0383117 L56.2702979,18.1344156 L56.2702979,9.88246753 C56.2702979,7.70584416 57.2890213,5.93961039 59.4285957,5.93961039 C61.5707234,5.93961039 62.5881702,7.70584416 62.5881702,9.88246753 L62.5894468,9.88246753 L62.5894468,9.89805195 L62.5894468,18.1344156 L62.5894468,19.0383117 L67.7098723,19.0383117 L67.7098723,18.1344156 L67.7098723,9.89935065 L67.7098723,9.88246753 C67.7098723,7.70584416 68.7273191,5.93961039 70.8681702,5.93961039 C73.0090213,5.93961039 74.0277447,7.70584416 74.0277447,9.88246753 L74.0277447,18.1344156 L74.0277447,19.0383117 L79.1468936,19.0383117 L79.1468936,9.88246753 C79.1468936,4.82922078 76.9154043,0.729220779 71.945617,0.729220779" id="Fill-17"></path>
                    <path d="M20.7933191,0.729220779 C18.2694894,0.729220779 16.350766,1.78896104 14.7154468,3.49415584 C13.0814043,1.78896104 11.5201277,0.729220779 8.99629787,0.729220779 C7.6073617,0.729220779 6.29502128,1.42532468 5.1192766,1.99805195 L4.40182979,1.09415584 L0.000127659574,1.09415584 L0.000127659574,9.88246753 L0.000127659574,19.0383117 L5.1192766,19.0383117 L5.1192766,18.1344156 L5.1192766,9.88246753 C5.1192766,7.70584416 6.13544681,5.93961039 8.27629787,5.93961039 C10.4171489,5.93961039 11.4371489,7.70584416 11.4371489,9.88246753 L11.4371489,9.89805195 L11.4371489,18.1344156 L11.4371489,19.0383117 L16.5614043,19.0383117 L16.5614043,18.1344156 L16.5614043,9.89935065 C16.5614043,9.89155844 16.5588511,9.88766234 16.5588511,9.88246753 C16.5588511,7.70584416 17.5762979,5.93961039 19.7171489,5.93961039 C21.8592766,5.93961039 22.8767234,7.70584416 22.8767234,9.88246753 L22.8767234,18.1344156 L22.8767234,19.0383117 L27.9971489,19.0383117 L27.9971489,9.88246753 L27.9958723,9.88246753 C27.9958723,4.82922078 25.7631064,0.729220779 20.7933191,0.729220779" id="Fill-20"></path>
                </g>
            </g>
        </g>
    </g>
</svg>